# xmcd
#
# Track frame offsets:
#	150
#	11268
#	25960
#	47481
#	62169
#	75080
#	87848
#	99468
#	111856
#	125076
#	136952
#
# Disc length: 2294 seconds
#
# Revision: 0
# Processed by: cddbd v1.4PL0 Copyright (c) Steve Scherf et al.
# Submitted via: EZCDDA 4.3.3.2
#
DISCID=7f08f40b
DTITLE=Pine Hill Haints - Trains Have No Names
DYEAR=1900
DGENRE=
TTITLE0=Tennessee River Rambler
TTITLE1=They Tried to Kill My Momma's Son
TTITLE2=Trains Have No Names
TTITLE3=Wrestle with the Angels
TTITLE4=Troubled Kid
TTITLE5=Coon Dog Cemetery
TTITLE6=Crush my Heart
TTITLE7=Fountains of Smoke, Rivers of Beer
TTITLE8=White Lightnin' Strikes, The Earth Quakes
TTITLE9=Back in the Saddle Again (Autry, Whitley)
TTITLE10=What is a Haint? (Live)
EXTD=
EXTT0=
EXTT1=
EXTT2=
EXTT3=
EXTT4=
EXTT5=
EXTT6=
EXTT7=
EXTT8=
EXTT9=
EXTT10=
PLAYORDER=
